<?xml version="1.0" encoding="UTF-8"?>
<svg version="1.1" xmlns="http://www.w3.org/2000/svg" width="16" height="16">
<path d="M0 0 C2.5 1.5 2.5 1.5 4 4 C4.791013 8.02098277 4.62153384 10.96411027 2.5 14.5 C-1.03588973 16.62153384 -3.97901723 16.791013 -8 16 C-10.5 14.5 -10.5 14.5 -12 12 C-12.791013 7.97901723 -12.62153384 5.03588973 -10.5 1.5 C-6.96411027 -0.62153384 -4.02098277 -0.791013 0 0 Z " fill="#BF93C6" transform="translate(12,0)"/>
<path d="M0 0 C3.45669582 -0.31424507 5.39901677 -0.37956836 8.375 1.5 C10.64288351 4.98905155 10.84727656 7.94636313 10 12 C8.125 14.5 8.125 14.5 6 16 C5.34 16 4.68 16 4 16 C3.67 14.02 3.34 12.04 3 10 C3.66 9.67 4.32 9.34 5 9 C5.65213292 6.97536745 5.65213292 6.97536745 6 5 C5.34 4.67 4.68 4.34 4 4 C3.67 4.66 3.34 5.32 3 6 C2.34 6 1.68 6 1 6 C-0.0625 4.125 -0.0625 4.125 -1 2 C-0.67 1.34 -0.34 0.68 0 0 Z " fill="#B3BADE" transform="translate(6,0)"/>
<path d="M0 0 C0.66 0.33 1.32 0.66 2 1 C2 1.66 2 2.32 2 3 C2.66 3 3.32 3 4 3 C4.33 2.01 4.66 1.02 5 0 C5.99 0.33 6.98 0.66 8 1 C7.34 2.98 6.68 4.96 6 7 C5.34 7 4.68 7 4 7 C4 7.99 4 8.98 4 10 C1 9 1 9 -0.75 6.0625 C-1.1625 5.051875 -1.575 4.04125 -2 3 C-1 1 -1 1 0 0 Z " fill="#463A7D" transform="translate(5,3)"/>
<path d="M0 0 C1.32 0.66 2.64 1.32 4 2 C3.62403791 4.78211944 3.32681541 6.5879284 1.5625 8.8125 C0 10 0 10 -2 10 C-2.33 8.02 -2.66 6.04 -3 4 C-2.34 3.67 -1.68 3.34 -1 3 C-0.67 2.01 -0.34 1.02 0 0 Z " fill="#889CC9" transform="translate(12,6)"/>
<path d="M0 0 C-0.47773092 4.29957824 -1.70186645 6.21719982 -5 9 C-5.33 9 -5.66 9 -6 9 C-6.25 6.75 -6.25 6.75 -6 4 C-2.75675676 0 -2.75675676 0 0 0 Z " fill="#D3ABD4" transform="translate(6,0)"/>
<path d="M0 0 C1.65 1.32 3.3 2.64 5 4 C4.67 5.32 4.34 6.64 4 8 C2.35 6.35 0.7 4.7 -1 3 C-0.67 2.01 -0.34 1.02 0 0 Z " fill="#97CBE8" transform="translate(11,0)"/>
<path d="M0 0 C0 0.99 0 1.98 0 3 C-1.98 3 -3.96 3 -6 3 C-6 2.01 -6 1.02 -6 0 C-3.50907189 -1.24546405 -2.58919267 -0.7767578 0 0 Z " fill="#A690C4" transform="translate(10,13)"/>
<path d="M0 0 C1.32 0.66 2.64 1.32 4 2 C4 2.99 4 3.98 4 5 C2.02 5.33 0.04 5.66 -2 6 C-1.34 4.02 -0.68 2.04 0 0 Z " fill="#8BB5DA" transform="translate(12,6)"/>
</svg>
